<svg width="138" height="40" viewBox="0 0 138 40" fill="none" xmlns="http://www.w3.org/2000/svg">
<path d="M0 26.5691C2.36162 32.111 7.85876 35.9986 14.2652 35.9986C11.9036 30.4543 6.40648 26.5691 0 26.5691Z" fill="#C9C9C9"/>
<path d="M25.8908 16.6243C25.8908 23.0453 20.6863 28.2486 14.2665 28.2486C7.84551 28.2486 2.64221 23.0453 2.64221 16.6243C2.64221 10.2057 7.84551 5 14.2665 5C20.6863 5 25.8908 10.2057 25.8908 16.6243Z" fill="#E1E1E1"/>
<path d="M14.2664 35.9985C18.9727 35.9985 23.0248 33.2016 24.8531 29.1809C20.148 29.1809 16.0959 31.9778 14.2664 35.9985Z" fill="#C9C9C9"/>
<path d="M20.0779 16.6245C20.0779 19.835 17.4756 22.4373 14.2664 22.4373C11.0559 22.4373 8.45361 19.835 8.45361 16.6245C8.45361 13.414 11.0559 10.813 14.2664 10.813C17.4756 10.813 20.0779 13.414 20.0779 16.6245Z" fill="#C9C9C9"/>
<path d="M89.0559 16.6246H93.9182V35.4716H89.0559V28.1316H80.5659V35.4716H75.7036V16.6246H80.5659V23.5704H89.0559V16.6246ZM96.2084 21.2995H102.262V35.4716H107.124V21.2995H113.104V16.6246H96.2084V21.2995ZM136.681 31.3723V35.3785C135.853 35.7933 134.817 36 133.607 36C131.081 36 129.81 34.9009 129.3 33.1306L129.219 33.2491C127.749 35.0956 125.714 36 123.075 36C120.549 36 118.4 35.0581 116.591 33.1354C114.82 31.2127 113.915 28.8378 113.915 26.0481C113.915 23.2609 114.82 20.9234 116.591 19.0008C118.4 17.0793 120.549 16.0974 123.075 16.0974C125.597 16.0974 127.567 16.927 129.021 18.6162V16.6259H133.883V29.9576C133.883 31.0967 134.402 31.6831 135.438 31.6831C135.922 31.6819 136.337 31.5791 136.681 31.3723ZM129.219 26.0469C129.219 24.5039 128.729 23.2222 127.711 22.2415C126.732 21.2245 125.487 20.7336 123.98 20.7336C122.472 20.7336 121.229 21.2233 120.248 22.2415C119.268 23.2222 118.779 24.5039 118.779 26.0469C118.779 27.5935 119.268 28.8753 120.248 29.8935C121.229 30.8729 122.472 31.3627 123.98 31.3627C125.487 31.3627 126.732 30.8729 127.711 29.8935C128.729 28.8753 129.219 27.5935 129.219 26.0469ZM35.6456 16.6246L35.5005 23.7059C35.4666 26.5729 35.3626 27.9889 34.9478 29.6105C34.5681 31.1656 33.8426 31.6045 32.7047 31.6045C32.3238 31.6045 31.9792 31.5694 31.7023 31.4654V35.4716C32.082 35.6784 32.7047 35.7812 33.533 35.7812C36.9515 35.6784 38.6094 34.0653 39.4389 31.1644C40.0254 29.0917 40.1294 27.5028 40.2334 25.1207L40.3422 21.2983H46.3799V35.4704H51.2422V16.6234H35.6456V16.6246ZM59.0634 27.3202C59.587 30.5368 62.1373 31.59 64.725 31.59C66.4397 31.59 68.2366 30.9201 69.3419 29.9176L72.3407 32.9347C70.5499 34.9178 68.0564 36 64.6488 36C59.8785 36 54.1237 33.1838 54.1237 26.0481C54.1237 18.9137 59.6656 16.0974 64.3719 16.0974C70.325 16.0974 72.7882 18.8944 72.7882 22.0299C72.7894 27.1558 66.274 29.5235 59.0634 27.3202ZM67.5099 22.5849C67.5099 21.1229 66.0636 20.47 64.4433 20.47C61.968 20.47 59.8228 21.5148 59.1711 24.2041C64.2147 25.6612 67.5099 24.5741 67.5099 22.5849Z" fill="#E1E1E1"/>
</svg>
